<svg width="20" height="20" viewBox="0 0 20 20" fill="none" xmlns="http://www.w3.org/2000/svg">
<path opacity="0.4" d="M13.4917 1.66675H6.50832C3.47499 1.66675 1.66666 3.47508 1.66666 6.50842V13.4917C1.66666 16.5251 3.47499 18.3334 6.50832 18.3334H13.4917C16.525 18.3334 18.3333 16.5251 18.3333 13.4917V6.50842C18.3333 3.47508 16.525 1.66675 13.4917 1.66675Z" fill="#2E3F99"/>
<path d="M15.2583 7.39185C15.2583 7.73351 14.9833 8.01685 14.6333 8.01685H10.2583C9.91666 8.01685 9.63333 7.73351 9.63333 7.39185C9.63333 7.05018 9.91666 6.76685 10.2583 6.76685H14.6333C14.9833 6.76685 15.2583 7.05018 15.2583 7.39185Z" fill="#2E3F99"/>
<path d="M8.30832 6.58338L6.43332 8.45838C6.30832 8.58338 6.14999 8.64172 5.99165 8.64172C5.83332 8.64172 5.66665 8.58338 5.54999 8.45838L4.92499 7.83338C4.67499 7.59172 4.67499 7.19172 4.92499 6.95005C5.16665 6.70838 5.55832 6.70838 5.80832 6.95005L5.99165 7.13338L7.42499 5.70005C7.66665 5.45838 8.05832 5.45838 8.30832 5.70005C8.54999 5.94172 8.54999 6.34172 8.30832 6.58338Z" fill="#2E3F99"/>
<path d="M15.2583 13.2251C15.2583 13.5668 14.9833 13.8501 14.6333 13.8501H10.2583C9.91666 13.8501 9.63333 13.5668 9.63333 13.2251C9.63333 12.8834 9.91666 12.6001 10.2583 12.6001H14.6333C14.9833 12.6001 15.2583 12.8834 15.2583 13.2251Z" fill="#2E3F99"/>
<path d="M8.30832 12.4166L6.43332 14.2916C6.30832 14.4166 6.14999 14.475 5.99165 14.475C5.83332 14.475 5.66665 14.4166 5.54999 14.2916L4.92499 13.6666C4.67499 13.425 4.67499 13.025 4.92499 12.7833C5.16665 12.5416 5.55832 12.5416 5.80832 12.7833L5.99165 12.9666L7.42499 11.5333C7.66665 11.2916 8.05832 11.2916 8.30832 11.5333C8.54999 11.775 8.54999 12.175 8.30832 12.4166Z" fill="#2E3F99"/>
</svg>
