<svg width="21" height="21" viewBox="0 0 21 21" fill="none" xmlns="http://www.w3.org/2000/svg">
<path opacity="0.4" d="M10.5 3.59488V20.125C10.3215 20.125 10.1325 20.0941 9.9855 20.0116L9.9435 19.9909C7.9275 18.9082 4.41 17.7739 2.1315 17.4748L1.827 17.4336C0.819 17.3098 0 16.3817 0 15.3918V2.93491C0 1.70779 1.0185 0.779708 2.268 0.882828C4.473 1.05813 7.812 2.1512 9.681 3.29583L9.9435 3.45051C10.101 3.54332 10.3005 3.59488 10.5 3.59488Z" fill="#2E3F99"/>
<path d="M21 2.9454V15.392C21 16.3819 20.181 17.31 19.173 17.4337L18.8265 17.475C16.5375 17.774 13.0095 18.9187 10.9935 20.0117C10.857 20.0942 10.689 20.1252 10.5 20.1252V3.59505C10.6995 3.59505 10.899 3.54349 11.0565 3.45068L11.235 3.33725C13.104 2.18231 16.4535 1.07893 18.6585 0.893311H18.7215C19.971 0.790191 21 1.70796 21 2.9454Z" fill="#2E3F99"/>
<path d="M6.03745 7.65781H3.67495C3.24445 7.65781 2.88745 7.3072 2.88745 6.88441C2.88745 6.46162 3.24445 6.11101 3.67495 6.11101H6.03745C6.46795 6.11101 6.82495 6.46162 6.82495 6.88441C6.82495 7.3072 6.46795 7.65781 6.03745 7.65781Z" fill="#2E3F99"/>
<path d="M6.82495 10.7514H3.67495C3.24445 10.7514 2.88745 10.4008 2.88745 9.978C2.88745 9.55521 3.24445 9.20461 3.67495 9.20461H6.82495C7.25545 9.20461 7.61245 9.55521 7.61245 9.978C7.61245 10.4008 7.25545 10.7514 6.82495 10.7514Z" fill="#2E3F99"/>
</svg>
