<svg width="21" height="21" viewBox="0 0 21 21" fill="none" xmlns="http://www.w3.org/2000/svg">
<path opacity="0.6" d="M8.51539 2.1C8.43139 2.415 8.3999 2.7615 8.3999 3.15V6.3H3.1499V4.2C3.1499 3.045 4.0949 2.1 5.2499 2.1H8.51539Z" fill="#2E3F99"/>
<path d="M8.4 17.85V6.3H3.15C1.05 6.3 0 7.35 0 9.45V17.85C0 19.95 1.05 21 3.15 21H11.55C9.45 21 8.4 19.95 8.4 17.85ZM4.9875 15.75C4.9875 16.1805 4.6305 16.5375 4.2 16.5375C3.7695 16.5375 3.4125 16.1805 3.4125 15.75V11.55C3.4125 11.1195 3.7695 10.7625 4.2 10.7625C4.6305 10.7625 4.9875 11.1195 4.9875 11.55V15.75Z" fill="#2E3F99"/>
<path opacity="0.4" d="M12.5999 21H11.5499C9.4499 21 8.3999 19.95 8.3999 17.85V3.15C8.3999 1.05 9.4499 0 11.5499 0H17.8499C19.9499 0 20.9999 1.05 20.9999 3.15V17.85C20.9999 19.95 19.9499 21 17.8499 21H16.7999" fill="#2E3F99"/>
<path d="M16.8001 16.8V21H12.6001V16.8C12.6001 16.2225 13.0726 15.75 13.6501 15.75H15.7501C16.3276 15.75 16.8001 16.2225 16.8001 16.8Z" fill="#2E3F99"/>
<path d="M12.6 12.3375C12.1695 12.3375 11.8125 11.9805 11.8125 11.55V6.3C11.8125 5.8695 12.1695 5.5125 12.6 5.5125C13.0305 5.5125 13.3875 5.8695 13.3875 6.3V11.55C13.3875 11.9805 13.0305 12.3375 12.6 12.3375Z" fill="#2E3F99"/>
<path d="M16.8 12.3375C16.3695 12.3375 16.0125 11.9805 16.0125 11.55V6.3C16.0125 5.8695 16.3695 5.5125 16.8 5.5125C17.2305 5.5125 17.5875 5.8695 17.5875 6.3V11.55C17.5875 11.9805 17.2305 12.3375 16.8 12.3375Z" fill="#2E3F99"/>
</svg>
