<svg width="16" height="16" viewBox="0 0 16 16" fill="none" xmlns="http://www.w3.org/2000/svg">
<path d="M12.496 7.00013C12.152 7.00013 11.88 6.72013 11.88 6.38413C11.88 6.08813 11.584 5.47213 11.088 4.93613C10.6 4.41613 10.064 4.11213 9.616 4.11213C9.272 4.11213 9 3.83213 9 3.49613C9 3.16013 9.28 2.88013 9.616 2.88013C10.416 2.88013 11.256 3.31213 11.992 4.08813C12.68 4.81613 13.12 5.72013 13.12 6.37613C13.12 6.72013 12.84 7.00013 12.496 7.00013Z" fill="#73BF44"/>
<path d="M15.3838 7C15.0398 7 14.7678 6.72 14.7678 6.384C14.7678 3.544 12.4558 1.24 9.62381 1.24C9.27981 1.24 9.00781 0.96 9.00781 0.624C9.00781 0.288 9.27981 0 9.61581 0C13.1358 0 15.9998 2.864 15.9998 6.384C15.9998 6.72 15.7198 7 15.3838 7Z" fill="#73BF44"/>
<path opacity="0.4" d="M7.832 9.768L5.216 12.384C4.928 12.128 4.648 11.864 4.376 11.592C3.552 10.76 2.808 9.888 2.144 8.976C1.488 8.064 0.96 7.152 0.576 6.248C0.192 5.336 0 4.464 0 3.632C0 3.088 0.0959999 2.568 0.288 2.088C0.48 1.6 0.784 1.152 1.208 0.752C1.72 0.248 2.28 0 2.872 0C3.096 0 3.32 0.0480001 3.52 0.144C3.728 0.24 3.912 0.384 4.056 0.592L5.912 3.208C6.056 3.408 6.16 3.592 6.232 3.768C6.304 3.936 6.344 4.104 6.344 4.256C6.344 4.448 6.288 4.64 6.176 4.824C6.072 5.008 5.92 5.2 5.728 5.392L5.12 6.024C5.032 6.112 4.992 6.216 4.992 6.344C4.992 6.408 5 6.464 5.016 6.528C5.04 6.592 5.064 6.64 5.08 6.688C5.224 6.952 5.472 7.296 5.824 7.712C6.184 8.128 6.568 8.552 6.984 8.976C7.272 9.256 7.552 9.528 7.832 9.768Z" fill="#73BF44"/>
<path d="M15.9761 13.0641C15.9761 13.2881 15.9361 13.5201 15.8561 13.7441C15.8321 13.8081 15.8081 13.8721 15.7761 13.9361C15.6401 14.2241 15.4641 14.4961 15.2321 14.7521C14.8401 15.1841 14.4081 15.4961 13.9201 15.6961C13.9121 15.6961 13.9041 15.7041 13.8961 15.7041C13.4241 15.8961 12.9121 16.0001 12.3601 16.0001C11.5441 16.0001 10.6721 15.8081 9.75208 15.4161C8.83208 15.0241 7.91208 14.4961 7.00008 13.8321C6.68808 13.6001 6.37608 13.3681 6.08008 13.1201L8.69608 10.5041C8.92008 10.6721 9.12008 10.8001 9.28808 10.8881C9.32808 10.9041 9.37608 10.9281 9.43208 10.9521C9.49608 10.9761 9.56008 10.9841 9.63208 10.9841C9.76808 10.9841 9.87208 10.9361 9.96008 10.8481L10.5681 10.2481C10.7681 10.0481 10.9601 9.89608 11.1441 9.80008C11.3281 9.68808 11.5121 9.63208 11.7121 9.63208C11.8641 9.63208 12.0241 9.66408 12.2001 9.73608C12.3761 9.80808 12.5601 9.91208 12.7601 10.0481L15.4081 11.9281C15.6161 12.0721 15.7601 12.2401 15.8481 12.4401C15.9281 12.6401 15.9761 12.8401 15.9761 13.0641Z" fill="#73BF44"/>
</svg>
