<svg width="20" height="20" viewBox="0 0 20 20" fill="none" xmlns="http://www.w3.org/2000/svg">
<path opacity="0.4" d="M10 14.4584C10.7502 14.4584 11.3583 13.8502 11.3583 13.1C11.3583 12.3498 10.7502 11.7417 10 11.7417C9.24981 11.7417 8.64166 12.3498 8.64166 13.1C8.64166 13.8502 9.24981 14.4584 10 14.4584Z" fill="#2E3F99"/>
<path d="M13.875 7.8667H6.12499C2.70832 7.8667 1.66666 8.90837 1.66666 12.325V13.875C1.66666 17.2917 2.70832 18.3334 6.12499 18.3334H13.875C17.2917 18.3334 18.3333 17.2917 18.3333 13.875V12.325C18.3333 8.90837 17.2917 7.8667 13.875 7.8667ZM9.99999 15.6167C8.60832 15.6167 7.48332 14.4834 7.48332 13.1C7.48332 11.7167 8.60832 10.5834 9.99999 10.5834C11.3917 10.5834 12.5167 11.7167 12.5167 13.1C12.5167 14.4834 11.3917 15.6167 9.99999 15.6167Z" fill="#2E3F99"/>
<path opacity="0.4" d="M5.93333 7.87508V6.90008C5.93333 4.45841 6.625 2.83341 10 2.83341C13.375 2.83341 14.0667 4.45841 14.0667 6.90008V7.87508C14.4917 7.88341 14.875 7.90008 15.2333 7.95008V6.90008C15.2333 4.65008 14.6917 1.66675 10 1.66675C5.30833 1.66675 4.76666 4.65008 4.76666 6.90008V7.94175C5.11666 7.90008 5.50833 7.87508 5.93333 7.87508Z" fill="#2E3F99"/>
</svg>
