<svg width="16" height="16" viewBox="0 0 16 16" fill="none" xmlns="http://www.w3.org/2000/svg">
<path opacity="0.4" d="M16 8C16 12.376 12.488 15.928 8.128 16H8C7.512 16 7.032 15.952 6.568 15.872C2.832 15.192 0 11.928 0 8C0 6.632 0.344 5.344 0.952 4.216C1.2 3.76 1.488 3.32 1.816 2.92C3.288 1.136 5.512 0 8 0C10.848 0 13.344 1.488 14.76 3.728C15.04 4.168 15.28 4.64 15.472 5.136C15.816 6.024 16 6.992 16 8Z" fill="#73BF44"/>
<path d="M10.4801 4.81604C12.1441 4.68004 13.8161 4.78404 15.4721 5.13604C15.2801 4.64004 15.0401 4.16804 14.7601 3.72804C12.4641 3.35204 10.1441 3.42404 7.85615 3.92004C5.91215 3.98404 4.32815 5.42404 4.03215 7.30404C3.10415 5.96004 2.35215 4.49604 1.81615 2.92004C1.48815 3.32004 1.20015 3.76004 0.952148 4.21604C1.80015 6.36804 2.99215 8.28804 4.52015 9.97604C4.53615 9.99204 4.56015 10 4.57615 10.016C5.30415 11.192 6.59215 11.92 7.97615 11.92C8.46415 11.92 8.93615 11.824 9.37615 11.656C8.64815 13.184 7.72015 14.6 6.56815 15.872C7.03215 15.952 7.51215 16 8.00015 16H8.12815C9.60815 14.192 10.7281 12.144 11.4801 9.84004C11.8081 9.24804 11.9841 8.58404 11.9841 7.91204C11.9841 6.65604 11.3921 5.55204 10.4801 4.81604ZM10.3441 9.28804C9.86415 10.128 8.95215 10.656 7.97615 10.656C7.00015 10.656 6.09615 10.128 5.60815 9.28804C5.36015 8.85604 5.24015 8.40004 5.24015 7.91204C5.24015 6.40004 6.46415 5.17604 7.97615 5.17604C9.48815 5.17604 10.7201 6.40004 10.7201 7.91204C10.7201 8.40004 10.5921 8.85604 10.3441 9.28804Z" fill="#73BF44"/>
</svg>
