<svg width="20" height="20" viewBox="0 0 20 20" fill="none" xmlns="http://www.w3.org/2000/svg">
<path d="M14.6833 8.95841C14.325 8.95841 14.0417 8.66675 14.0417 8.31675C14.0417 8.00841 13.7333 7.36675 13.2167 6.80841C12.7083 6.26675 12.15 5.95008 11.6833 5.95008C11.325 5.95008 11.0417 5.65841 11.0417 5.30841C11.0417 4.95841 11.3333 4.66675 11.6833 4.66675C12.5167 4.66675 13.3917 5.11675 14.1583 5.92508C14.875 6.68341 15.3333 7.62508 15.3333 8.30841C15.3333 8.66675 15.0417 8.95841 14.6833 8.95841Z" fill="#2E3F99"/>
<path d="M17.6917 8.95841C17.3333 8.95841 17.05 8.66675 17.05 8.31675C17.05 5.35841 14.6417 2.95841 11.6917 2.95841C11.3333 2.95841 11.05 2.66675 11.05 2.31675C11.05 1.96675 11.3333 1.66675 11.6833 1.66675C15.35 1.66675 18.3333 4.65008 18.3333 8.31675C18.3333 8.66675 18.0417 8.95841 17.6917 8.95841Z" fill="#2E3F99"/>
<path opacity="0.4" d="M9.82499 11.8417L7.09999 14.5667C6.79999 14.3001 6.50832 14.0251 6.22499 13.7417C5.36666 12.8751 4.59166 11.9667 3.89999 11.0167C3.21666 10.0667 2.66666 9.11675 2.26666 8.17508C1.86666 7.22508 1.66666 6.31675 1.66666 5.45008C1.66666 4.88341 1.76666 4.34175 1.96666 3.84175C2.16666 3.33341 2.48332 2.86675 2.92499 2.45008C3.45832 1.92508 4.04166 1.66675 4.65832 1.66675C4.89166 1.66675 5.12499 1.71675 5.33332 1.81675C5.54999 1.91675 5.74166 2.06675 5.89166 2.28341L7.82499 5.00841C7.97499 5.21675 8.08332 5.40841 8.15832 5.59175C8.23332 5.76675 8.27499 5.94175 8.27499 6.10008C8.27499 6.30008 8.21666 6.50008 8.09999 6.69175C7.99166 6.88341 7.83332 7.08341 7.63332 7.28341L6.99999 7.94175C6.90832 8.03341 6.86666 8.14175 6.86666 8.27508C6.86666 8.34175 6.87499 8.40008 6.89166 8.46675C6.91666 8.53341 6.94166 8.58341 6.95832 8.63341C7.10832 8.90841 7.36666 9.26675 7.73332 9.70008C8.10832 10.1334 8.50832 10.5751 8.94166 11.0167C9.24166 11.3084 9.53332 11.5917 9.82499 11.8417Z" fill="#2E3F99"/>
<path d="M18.3083 15.275C18.3083 15.5083 18.2667 15.75 18.1833 15.9833C18.1583 16.05 18.1333 16.1166 18.1 16.1833C17.9583 16.4833 17.775 16.7666 17.5333 17.0333C17.125 17.4833 16.675 17.8083 16.1667 18.0166C16.1583 18.0166 16.15 18.025 16.1417 18.025C15.65 18.225 15.1167 18.3333 14.5417 18.3333C13.6917 18.3333 12.7833 18.1333 11.825 17.725C10.8667 17.3166 9.90833 16.7666 8.95833 16.075C8.63333 15.8333 8.30833 15.5916 8 15.3333L10.725 12.6083C10.9583 12.7833 11.1667 12.9166 11.3417 13.0083C11.3833 13.025 11.4333 13.05 11.4917 13.075C11.5583 13.1 11.625 13.1083 11.7 13.1083C11.8417 13.1083 11.95 13.0583 12.0417 12.9666L12.675 12.3416C12.8833 12.1333 13.0833 11.975 13.275 11.875C13.4667 11.7583 13.6583 11.7 13.8667 11.7C14.025 11.7 14.1917 11.7333 14.375 11.8083C14.5583 11.8833 14.75 11.9916 14.9583 12.1333L17.7167 14.0916C17.9333 14.2416 18.0833 14.4166 18.175 14.625C18.2583 14.8333 18.3083 15.0416 18.3083 15.275Z" fill="#2E3F99"/>
</svg>
