<svg width="20" height="20" viewBox="0 0 20 20" fill="none" xmlns="http://www.w3.org/2000/svg">
<path opacity="0.4" d="M17.0833 8.49175H14.675C12.7 8.49175 11.0917 6.88341 11.0917 4.90841V2.50008C11.0917 2.04175 10.7167 1.66675 10.2583 1.66675H6.72501C4.15834 1.66675 2.08334 3.33342 2.08334 6.30841V13.6917C2.08334 16.6667 4.15834 18.3334 6.72501 18.3334H13.275C15.8417 18.3334 17.9167 16.6667 17.9167 13.6917V9.32508C17.9167 8.86675 17.5417 8.49175 17.0833 8.49175Z" fill="#2E3F99"/>
<path d="M13.1667 1.84158C12.825 1.49991 12.2333 1.73325 12.2333 2.20825V5.11658C12.2333 6.33325 13.2667 7.34158 14.525 7.34158C15.3167 7.34991 16.4167 7.34991 17.3583 7.34991C17.8333 7.34991 18.0833 6.79158 17.75 6.45825C16.55 5.24991 14.4 3.07491 13.1667 1.84158Z" fill="#2E3F99"/>
<path d="M9.60834 10.3917L7.94167 8.72508C7.93334 8.71675 7.925 8.71675 7.925 8.70841C7.875 8.65841 7.80834 8.61675 7.74167 8.58341C7.73334 8.58341 7.73334 8.58341 7.725 8.58341C7.65834 8.55841 7.59167 8.55008 7.525 8.54175C7.5 8.54175 7.48334 8.54175 7.45834 8.54175C7.40834 8.54175 7.35 8.55841 7.3 8.57508C7.275 8.58341 7.25834 8.59175 7.24167 8.60008C7.175 8.63341 7.10834 8.66675 7.05834 8.72508L5.39167 10.3917C5.15 10.6334 5.15 11.0334 5.39167 11.2751C5.63334 11.5167 6.03334 11.5167 6.275 11.2751L6.875 10.6751V14.1667C6.875 14.5084 7.15834 14.7917 7.5 14.7917C7.84167 14.7917 8.125 14.5084 8.125 14.1667V10.6751L8.725 11.2751C8.85 11.4001 9.00834 11.4584 9.16667 11.4584C9.325 11.4584 9.48334 11.4001 9.60834 11.2751C9.85 11.0334 9.85 10.6334 9.60834 10.3917Z" fill="#2E3F99"/>
</svg>
