<svg width="19" height="19" viewBox="0 0 19 19" fill="none" xmlns="http://www.w3.org/2000/svg">
<path d="M13.3002 0.199518C12.8902 -0.189982 12.1802 0.0760179 12.1802 0.617518V3.93302C12.1802 5.32002 13.4202 6.46952 14.9302 6.46952C15.8802 6.47902 17.2002 6.47902 18.3302 6.47902C18.9002 6.47902 19.2002 5.84252 18.8002 5.46252C17.3602 4.08502 14.7802 1.60552 13.3002 0.199518Z" fill="#2E3F99"/>
<path d="M18 7.7805H15.11C12.74 7.7805 10.81 5.947 10.81 3.6955V0.95C10.81 0.4275 10.36 0 9.81 0H5.57C2.49 0 0 1.9 0 5.2915V13.7085C0 17.1 2.49 19 5.57 19H13.43C16.51 19 19 17.1 19 13.7085V8.7305C19 8.208 18.55 7.7805 18 7.7805ZM9 14.9625H5C4.59 14.9625 4.25 14.6395 4.25 14.25C4.25 13.8605 4.59 13.5375 5 13.5375H9C9.41 13.5375 9.75 13.8605 9.75 14.25C9.75 14.6395 9.41 14.9625 9 14.9625ZM11 11.1625H5C4.59 11.1625 4.25 10.8395 4.25 10.45C4.25 10.0605 4.59 9.7375 5 9.7375H11C11.41 9.7375 11.75 10.0605 11.75 10.45C11.75 10.8395 11.41 11.1625 11 11.1625Z" fill="#2E3F99"/>
</svg>
