<svg width="20" height="20" viewBox="0 0 20 20" fill="none" xmlns="http://www.w3.org/2000/svg">
<path opacity="0.4" d="M14.1667 15.3582H10.8333L7.12498 17.8249C6.57498 18.1916 5.83332 17.7999 5.83332 17.1332V15.3582C3.33332 15.3582 1.66666 13.6916 1.66666 11.1916V6.19157C1.66666 3.69157 3.33332 2.0249 5.83332 2.0249H14.1667C16.6667 2.0249 18.3333 3.69157 18.3333 6.19157V11.1916C18.3333 13.6916 16.6667 15.3582 14.1667 15.3582Z" fill="#2E3F99"/>
<path d="M10 10.0916C9.65834 10.0916 9.37501 9.80822 9.37501 9.46655V9.29159C9.37501 8.32492 10.0833 7.84991 10.35 7.66658C10.6583 7.45824 10.7583 7.31658 10.7583 7.09991C10.7583 6.68325 10.4167 6.34155 10 6.34155C9.58334 6.34155 9.2417 6.68325 9.2417 7.09991C9.2417 7.44158 8.95837 7.72491 8.6167 7.72491C8.27503 7.72491 7.9917 7.44158 7.9917 7.09991C7.9917 5.99158 8.89168 5.09155 10 5.09155C11.1083 5.09155 12.0083 5.99158 12.0083 7.09991C12.0083 8.04991 11.3084 8.5249 11.05 8.6999C10.725 8.91657 10.625 9.05825 10.625 9.29159V9.46655C10.625 9.81655 10.3417 10.0916 10 10.0916Z" fill="#2E3F99"/>
<path d="M10 12.1667C9.65 12.1667 9.375 11.8834 9.375 11.5417C9.375 11.2001 9.65833 10.9167 10 10.9167C10.3417 10.9167 10.625 11.2001 10.625 11.5417C10.625 11.8834 10.35 12.1667 10 12.1667Z" fill="#2E3F99"/>
</svg>
