<svg width="29" height="19" viewBox="0 0 29 19" fill="none" xmlns="http://www.w3.org/2000/svg">
<g clip-path="url(#clip0_295_960)">
<path d="M28.5 0H0V19H28.5V0Z" fill="#FF9933"/>
<path d="M28.5 6.33333H0V12.6667H28.5V6.33333Z" fill="white"/>
<path d="M28.5 12.6667H0V19H28.5V12.6667Z" fill="#128807"/>
<path d="M14.25 12.0333C15.6491 12.0333 16.7833 10.8991 16.7833 9.49999C16.7833 8.10087 15.6491 6.96666 14.25 6.96666C12.8509 6.96666 11.7167 8.10087 11.7167 9.49999C11.7167 10.8991 12.8509 12.0333 14.25 12.0333Z" fill="#000088"/>
<path d="M14.25 11.7167C15.4742 11.7167 16.4667 10.7242 16.4667 9.49999C16.4667 8.27576 15.4742 7.28333 14.25 7.28333C13.0258 7.28333 12.0333 8.27576 12.0333 9.49999C12.0333 10.7242 13.0258 11.7167 14.25 11.7167Z" fill="white"/>
<path d="M14.25 9.94332C14.4949 9.94332 14.6934 9.74484 14.6934 9.49999C14.6934 9.25514 14.4949 9.05666 14.25 9.05666C14.0052 9.05666 13.8067 9.25514 13.8067 9.49999C13.8067 9.74484 14.0052 9.94332 14.25 9.94332Z" fill="#000088"/>
<path d="M16.4332 9.89923C16.4939 9.90722 16.5495 9.8645 16.5575 9.80381C16.5655 9.74312 16.5228 9.68745 16.4621 9.67946C16.4014 9.67147 16.3458 9.71419 16.3378 9.77488C16.3298 9.83557 16.3725 9.89124 16.4332 9.89923Z" fill="#000088"/>
<path d="M14.25 11.7167L14.326 10.3867L14.25 9.75334L14.174 10.3867L14.25 11.7167Z" fill="#000088"/>
<path d="M16.2555 10.4507C16.312 10.4741 16.3769 10.4473 16.4003 10.3907C16.4237 10.3341 16.3969 10.2693 16.3403 10.2459C16.2838 10.2225 16.2189 10.2493 16.1955 10.3059C16.1721 10.3624 16.1989 10.4273 16.2555 10.4507Z" fill="#000088"/>
<path d="M13.6762 11.6411L14.0939 10.3761L14.1844 9.74471L13.947 10.3368L13.6762 11.6411Z" fill="#000088"/>
<path d="M15.9411 10.9373C15.9896 10.9746 16.0592 10.9655 16.0965 10.9169C16.1338 10.8683 16.1246 10.7987 16.076 10.7615C16.0275 10.7242 15.9579 10.7334 15.9206 10.7819C15.8834 10.8305 15.8925 10.9001 15.9411 10.9373Z" fill="#000088"/>
<path d="M13.1416 11.4197L13.8724 10.3059L14.1233 9.7194L13.7408 10.2299L13.1416 11.4197Z" fill="#000088"/>
<path d="M15.5115 11.3261C15.5487 11.3746 15.6183 11.3838 15.6669 11.3465C15.7154 11.3093 15.7246 11.2397 15.6873 11.1911C15.6501 11.1426 15.5805 11.1334 15.5319 11.1707C15.4834 11.2079 15.4742 11.2775 15.5115 11.3261Z" fill="#000088"/>
<path d="M12.6825 11.0674L13.6767 10.1807L14.0708 9.67912L13.5693 10.0732L12.6825 11.0674Z" fill="#000088"/>
<path d="M14.9959 11.5903C15.0194 11.6469 15.0842 11.6738 15.1408 11.6503C15.1973 11.6269 15.2242 11.5621 15.2007 11.5055C15.1773 11.449 15.1125 11.4221 15.0559 11.4455C14.9994 11.469 14.9725 11.5338 14.9959 11.5903Z" fill="#000088"/>
<path d="M12.3303 10.6083L13.5201 10.0092L14.0306 9.62667L13.4441 9.87752L12.3303 10.6083Z" fill="#000088"/>
<path d="M14.4295 11.7122C14.4375 11.7729 14.4931 11.8156 14.5538 11.8076C14.6145 11.7996 14.6572 11.7439 14.6492 11.6832C14.6412 11.6225 14.5856 11.5798 14.5249 11.5878C14.4642 11.5958 14.4215 11.6515 14.4295 11.7122Z" fill="#000088"/>
<path d="M12.1089 10.0737L13.4132 9.8029L14.0053 9.56557L13.3739 9.65608L12.1089 10.0737Z" fill="#000088"/>
<path d="M13.8508 11.6832C13.8429 11.7439 13.8856 11.7996 13.9463 11.8076C14.007 11.8156 14.0626 11.7729 14.0706 11.7122C14.0786 11.6515 14.0359 11.5958 13.9752 11.5878C13.9145 11.5798 13.8588 11.6225 13.8508 11.6832Z" fill="#000088"/>
<path d="M12.0334 9.5L13.3634 9.576L13.9967 9.5L13.3634 9.424L12.0334 9.5Z" fill="#000088"/>
<path d="M13.2994 11.5055C13.2759 11.5621 13.3028 11.6269 13.3593 11.6503C13.4159 11.6738 13.4807 11.6469 13.5042 11.5904C13.5276 11.5338 13.5007 11.469 13.4442 11.4455C13.3876 11.4221 13.3228 11.449 13.2994 11.5055Z" fill="#000088"/>
<path d="M12.1089 8.92629L13.3739 9.34392L14.0054 9.43443L13.4133 9.1971L12.1089 8.92629Z" fill="#000088"/>
<path d="M12.8126 11.1911C12.7754 11.2397 12.7845 11.3092 12.8331 11.3465C12.8817 11.3838 12.9512 11.3746 12.9885 11.326C13.0258 11.2775 13.0166 11.2079 12.968 11.1706C12.9195 11.1334 12.8499 11.1425 12.8126 11.1911Z" fill="#000088"/>
<path d="M12.3303 8.39165L13.4441 9.12246L14.0306 9.37331L13.5201 8.99083L12.3303 8.39165Z" fill="#000088"/>
<path d="M12.424 10.7615C12.3754 10.7987 12.3663 10.8683 12.4035 10.9169C12.4408 10.9654 12.5104 10.9746 12.5589 10.9373C12.6075 10.9001 12.6166 10.8305 12.5794 10.7819C12.5421 10.7334 12.4725 10.7242 12.424 10.7615Z" fill="#000088"/>
<path d="M12.6826 7.93256L13.5693 8.92675L14.0709 9.32085L13.6768 8.81927L12.6826 7.93256Z" fill="#000088"/>
<path d="M12.1596 10.2459C12.1031 10.2693 12.0762 10.3341 12.0997 10.3907C12.1231 10.4472 12.1879 10.4741 12.2445 10.4507C12.301 10.4272 12.3279 10.3624 12.3044 10.3059C12.281 10.2493 12.2162 10.2224 12.1596 10.2459Z" fill="#000088"/>
<path d="M13.1417 7.58029L13.7408 8.7701L14.1233 9.28058L13.8725 8.6941L13.1417 7.58029Z" fill="#000088"/>
<path d="M12.0378 9.67943C11.9771 9.68742 11.9344 9.7431 11.9424 9.80378C11.9504 9.86447 12.0061 9.90719 12.0668 9.8992C12.1274 9.89121 12.1702 9.83554 12.1622 9.77485C12.1542 9.71416 12.0985 9.67144 12.0378 9.67943Z" fill="#000088"/>
<path d="M13.6763 7.35885L13.9471 8.6632L14.1844 9.25528L14.0939 8.62386L13.6763 7.35885Z" fill="#000088"/>
<path d="M12.0668 9.10075C12.0061 9.09276 11.9505 9.13549 11.9425 9.19617C11.9345 9.25686 11.9772 9.31254 12.0379 9.32052C12.0986 9.32851 12.1542 9.28579 12.1622 9.22511C12.1702 9.16442 12.1275 9.10874 12.0668 9.10075Z" fill="#000088"/>
<path d="M14.25 7.28331L14.174 8.61331L14.25 9.24664L14.326 8.61331L14.25 7.28331Z" fill="#000088"/>
<path d="M12.2445 8.5493C12.188 8.52588 12.1231 8.55273 12.0997 8.60928C12.0763 8.66584 12.1031 8.73067 12.1597 8.75409C12.2162 8.77752 12.2811 8.75066 12.3045 8.69411C12.3279 8.63756 12.3011 8.57273 12.2445 8.5493Z" fill="#000088"/>
<path d="M14.8238 7.35884L14.4061 8.62385L14.3156 9.25528L14.553 8.6632L14.8238 7.35884Z" fill="#000088"/>
<path d="M12.5589 8.06264C12.5104 8.02537 12.4408 8.03453 12.4035 8.0831C12.3662 8.13166 12.3754 8.20123 12.424 8.2385C12.4725 8.27576 12.5421 8.2666 12.5794 8.21804C12.6166 8.16948 12.6075 8.0999 12.5589 8.06264Z" fill="#000088"/>
<path d="M15.3584 7.58029L14.6276 8.69411L14.3767 9.28059L14.7592 8.77011L15.3584 7.58029Z" fill="#000088"/>
<path d="M12.9885 7.67392C12.9513 7.62536 12.8817 7.6162 12.8331 7.65346C12.7846 7.69072 12.7754 7.7603 12.8127 7.80886C12.8499 7.85742 12.9195 7.86658 12.9681 7.82932C13.0166 7.79206 13.0258 7.72248 12.9885 7.67392Z" fill="#000088"/>
<path d="M15.8175 7.93258L14.8233 8.81929L14.4292 9.32086L14.9307 8.92677L15.8175 7.93258Z" fill="#000088"/>
<path d="M13.5041 7.40965C13.4807 7.3531 13.4159 7.32625 13.3593 7.34967C13.3028 7.3731 13.2759 7.43793 13.2993 7.49448C13.3227 7.55103 13.3876 7.57789 13.4441 7.55446C13.5007 7.53104 13.5275 7.46621 13.5041 7.40965Z" fill="#000088"/>
<path d="M16.1697 8.39166L14.9799 8.99085L14.4694 9.37333L15.0559 9.12248L16.1697 8.39166Z" fill="#000088"/>
<path d="M14.0706 7.28783C14.0626 7.22714 14.0069 7.18442 13.9462 7.19241C13.8856 7.2004 13.8428 7.25608 13.8508 7.31677C13.8588 7.37745 13.9145 7.42017 13.9752 7.41218C14.0359 7.40419 14.0786 7.34852 14.0706 7.28783Z" fill="#000088"/>
<path d="M16.3912 8.92628L15.0868 9.1971L14.4947 9.43443L15.1262 9.34392L16.3912 8.92628Z" fill="#000088"/>
<path d="M14.6492 7.31677C14.6572 7.25608 14.6145 7.20041 14.5538 7.19242C14.4931 7.18443 14.4374 7.22715 14.4294 7.28784C14.4215 7.34852 14.4642 7.4042 14.5249 7.41219C14.5856 7.42018 14.6412 7.37746 14.6492 7.31677Z" fill="#000088"/>
<path d="M16.4667 9.5L15.1367 9.424L14.5034 9.5L15.1367 9.576L16.4667 9.5Z" fill="#000088"/>
<path d="M15.2007 7.49447C15.2241 7.43792 15.1973 7.37308 15.1407 7.34966C15.0842 7.32624 15.0193 7.35309 14.9959 7.40964C14.9725 7.46619 14.9993 7.53103 15.0559 7.55445C15.1124 7.57788 15.1773 7.55102 15.2007 7.49447Z" fill="#000088"/>
<path d="M16.3911 10.0737L15.1261 9.65608L14.4947 9.56557L15.0868 9.8029L16.3911 10.0737Z" fill="#000088"/>
<path d="M15.6874 7.80888C15.7247 7.76032 15.7155 7.69075 15.667 7.65348C15.6184 7.61622 15.5488 7.62538 15.5116 7.67394C15.4743 7.7225 15.4835 7.79208 15.532 7.82934C15.5806 7.86661 15.6502 7.85745 15.6874 7.80888Z" fill="#000088"/>
<path d="M16.1698 10.6083L15.0559 9.87752L14.4695 9.62667L14.9799 10.0092L16.1698 10.6083Z" fill="#000088"/>
<path d="M16.0761 8.23852C16.1246 8.20125 16.1338 8.13168 16.0965 8.08311C16.0593 8.03455 15.9897 8.02539 15.9411 8.06266C15.8926 8.09992 15.8834 8.16949 15.9207 8.21806C15.9579 8.26662 16.0275 8.27578 16.0761 8.23852Z" fill="#000088"/>
<path d="M15.8175 11.0674L14.9307 10.0732L14.4292 9.67914L14.8233 10.1807L15.8175 11.0674Z" fill="#000088"/>
<path d="M16.3404 8.75412C16.397 8.73069 16.4238 8.66586 16.4004 8.6093C16.377 8.55275 16.3121 8.5259 16.2556 8.54932C16.199 8.57275 16.1722 8.63758 16.1956 8.69413C16.219 8.75068 16.2839 8.77754 16.3404 8.75412Z" fill="#000088"/>
<path d="M15.3584 11.4197L14.7592 10.2299L14.3767 9.7194L14.6276 10.3059L15.3584 11.4197Z" fill="#000088"/>
<path d="M16.4622 9.32055C16.5229 9.31256 16.5657 9.25689 16.5577 9.1962C16.5497 9.13551 16.494 9.09279 16.4333 9.10078C16.3726 9.10877 16.3299 9.16445 16.3379 9.22513C16.3459 9.28582 16.4016 9.32854 16.4622 9.32055Z" fill="#000088"/>
<path d="M14.8238 11.6411L14.553 10.3368L14.3157 9.7447L14.4062 10.3761L14.8238 11.6411Z" fill="#000088"/>
</g>
<defs>
<clipPath id="clip0_295_960">
<rect width="28.5" height="19" fill="white"/>
</clipPath>
</defs>
</svg>
