<svg width="249" height="63" viewBox="0 0 249 63" fill="none" xmlns="http://www.w3.org/2000/svg">
<path fill-rule="evenodd" clip-rule="evenodd" d="M217.898 49.445H226.394V32.4304L238.831 49.445H248.947L236.015 31.9644L247.682 15.6966H237.743L226.394 31.4461V0H217.898V49.445Z" fill="white"/>
<path fill-rule="evenodd" clip-rule="evenodd" d="M26.1066 24.685C26.1459 24.3155 25.8757 23.2218 25.8341 23.0736C25.5056 21.8966 24.9617 20.8112 24.1602 19.8412C23.0361 18.4815 21.5746 17.5574 19.9406 16.9296C17.8834 16.1506 15.6186 15.8894 13.4324 15.8805C11.1104 15.8805 8.69745 16.153 6.51475 16.973C4.75099 17.6448 3.23179 18.679 2.13984 20.2328C0.97828 21.8858 0.588513 23.9061 0.571256 25.8936C0.56233 27.2605 0.781906 28.6452 1.39423 29.8805C1.97739 31.0677 2.89736 32.0073 3.99168 32.7392C5.42697 33.7121 7.19669 34.3596 8.86346 34.8255L15.0248 36.6416C15.9757 36.913 17.0396 37.3033 17.8442 37.9073C18.5231 38.4399 18.9974 39.1474 18.9974 40.0317C18.9974 40.7714 18.7124 41.4265 18.1857 41.9526C17.6585 42.4655 16.9944 42.7922 16.2928 42.9993C15.4705 43.2379 14.6112 43.3242 13.7579 43.3242C12.3125 43.3242 10.7831 43.1052 9.50435 42.3798C8.8962 42.0246 8.39753 41.5741 8.00598 41.0421H0.105918L0 41.057C0.341566 42.6149 0.976492 44.0531 1.98929 45.3194C3.18537 46.8041 4.76348 47.8217 6.53201 48.5048C8.74088 49.3653 11.2092 49.6402 13.5645 49.6491C15.9322 49.6491 18.3643 49.3516 20.5773 48.4751C22.3667 47.758 23.9091 46.6887 25.0337 45.1076C26.1846 43.5009 26.6118 41.5884 26.6202 39.6366C26.6297 38.212 26.3869 36.7969 25.7377 35.5199C25.0861 34.2483 24.0697 33.2408 22.898 32.4452C21.308 31.3771 19.4187 30.6172 17.5936 30.0489L11.5413 28.0965L11.5246 28.09C10.7504 27.8038 9.92625 27.4182 9.28061 26.8796C8.73672 26.4024 8.32434 25.7895 8.32434 25.0432C8.32434 24.0061 8.80456 23.1783 9.70548 22.6588C10.654 22.1215 11.909 22.0102 12.9801 22.0102C14.2595 22.0102 15.6293 22.1953 16.751 22.8421C17.5407 23.2878 18.131 23.9102 18.5225 24.6832C21.0498 24.685 23.5788 24.685 26.1066 24.685Z" fill="white"/>
<path fill-rule="evenodd" clip-rule="evenodd" d="M30.0614 49.6503H38.5577V32.6351L50.9946 49.6503H61.1107L48.1793 32.1697L59.845 15.9019H49.9062L38.5577 31.6508V0.204704H30.0614V49.6503Z" fill="white"/>
<path fill-rule="evenodd" clip-rule="evenodd" d="M147.053 49.6503H155.337V27.8745C155.337 26.2601 155.071 24.6844 154.451 23.1932C153.826 21.7287 152.895 20.4678 151.742 19.3747C150.564 18.2565 149.225 17.361 147.71 16.7635C146.144 16.1393 144.492 15.881 142.811 15.881C140.843 15.881 138.873 16.2143 137.111 17.1295C135.452 17.9798 134.15 19.2485 133.145 20.8141L132.461 21.8811L131.735 20.8415C130.645 19.2794 129.272 17.9947 127.566 17.1307C125.805 16.2345 123.882 15.881 121.918 15.881C118.571 15.881 115.783 17.0581 113.573 19.5841L112.086 21.2836V15.881H103.802V49.6509H112.086V30.5309C112.098 29.2646 112.375 28.0441 112.989 26.9343C113.561 25.8894 114.359 25.0325 115.372 24.3916C116.413 23.7537 117.566 23.4461 118.794 23.4336C120.007 23.4461 121.164 23.7501 122.196 24.3982C123.194 25.0379 123.978 25.8965 124.548 26.9385C125.15 28.0507 125.416 29.2711 125.428 30.5351V49.6509H133.711V30.5309C133.724 29.2646 134.001 28.0447 134.615 26.9343C135.191 25.8829 135.99 25.0289 137.007 24.3928C138.042 23.7508 139.195 23.4455 140.421 23.4336C141.633 23.4461 142.79 23.7501 143.823 24.3982C144.821 25.0379 145.617 25.8959 146.176 26.9403C146.778 28.0513 147.042 29.2706 147.054 30.5351V49.6503H147.053Z" fill="white"/>
<path fill-rule="evenodd" clip-rule="evenodd" d="M183.41 29.0296C183.834 30.1263 184.007 31.2837 184.007 32.4584C183.995 34.0656 183.654 35.6318 182.878 37.0469C182.154 38.3655 181.165 39.4575 179.887 40.2489C178.6 41.054 177.172 41.4438 175.651 41.4557C174.126 41.4438 172.688 41.0534 171.388 40.2489C170.116 39.4539 169.127 38.359 168.416 37.0415C167.652 35.6247 167.312 34.0597 167.301 32.4506C167.312 30.8743 167.663 29.3676 168.417 27.9811C169.133 26.6678 170.122 25.6014 171.385 24.8005C172.681 23.9858 174.119 23.5925 175.653 23.5812C176.762 23.5812 177.849 23.7841 178.864 24.2352C179.897 24.6892 180.793 25.3592 181.572 26.1715C182.366 27.001 182.99 27.9555 183.41 29.0296ZM184.136 49.4028H192.149V15.6341H184.136V19.5675L182.815 18.5844C180.185 16.6267 177.246 15.6341 173.967 15.6341C171.911 15.6341 169.913 15.9983 168.029 16.8284C166.15 17.6615 164.536 18.901 163.161 20.4226C161.722 22.0144 160.634 23.8156 159.91 25.8323C159.15 27.9799 158.833 30.2459 158.833 32.519C158.833 34.7779 159.155 37.0183 159.91 39.1498C160.639 41.1814 161.732 43.0047 163.162 44.6173C164.537 46.1383 166.15 47.3766 168.029 48.2091C169.913 49.0398 171.911 49.4034 173.967 49.4034C175.566 49.4034 177.147 49.1743 178.667 48.6572C180.172 48.1549 181.551 47.3808 182.798 46.4013L184.136 45.3498V49.4028H184.136Z" fill="white"/>
<path fill-rule="evenodd" clip-rule="evenodd" d="M203.897 15.8394H195.673V49.6087H203.897V31.9478C203.909 30.5303 204.222 29.1569 204.922 27.9138C205.599 26.7332 206.518 25.7871 207.69 25.0968C208.906 24.3726 210.262 24.0542 211.675 24.0429C212.417 24.0429 213.164 24.1161 213.873 24.3131C214.051 24.3595 214.228 24.4125 214.401 24.4732V16.0988C212.702 16.1679 210.992 16.4571 209.424 17.1182C207.815 17.7864 206.475 18.8082 205.405 20.1828L203.897 22.1203V15.8394Z" fill="white"/>
<path d="M240.547 53.9973V62.3633C240.547 62.496 240.591 62.6066 240.679 62.6947C240.767 62.7834 240.878 62.8274 241.011 62.8274H241.528C241.652 62.8274 241.758 62.7834 241.846 62.6947C241.934 62.6066 241.979 62.496 241.979 62.3633V56.1187L247.044 62.5227C247.203 62.7256 247.42 62.8274 247.693 62.8274H248.144C248.277 62.8274 248.387 62.7834 248.476 62.6947C248.565 62.6066 248.609 62.5001 248.609 62.3769V54.0109C248.609 53.8782 248.565 53.7676 248.476 53.6795C248.388 53.5914 248.277 53.5468 248.144 53.5468H247.627C247.495 53.5468 247.386 53.5908 247.302 53.6795C247.219 53.7682 247.176 53.8782 247.176 54.0109V60.2686L242.112 53.8646C241.961 53.6527 241.745 53.5468 241.462 53.5468H240.998C240.874 53.5468 240.768 53.5908 240.68 53.6795C240.592 53.7682 240.547 53.8735 240.547 53.9973ZM222.51 58.1871C222.51 57.2237 222.824 56.4192 223.452 55.7741C224.079 55.1285 224.857 54.806 225.785 54.806C226.722 54.806 227.502 55.1285 228.125 55.7741C228.749 56.4192 229.06 57.2237 229.06 58.1871C229.06 59.1505 228.749 59.955 228.125 60.6001C227.502 61.2451 226.722 61.5676 225.785 61.5676C224.857 61.5676 224.079 61.2451 223.452 60.6001C222.824 59.955 222.51 59.1505 222.51 58.1871ZM220.972 58.1871C220.972 59.5575 221.431 60.7018 222.351 61.6212C223.27 62.54 224.415 63 225.785 63C227.155 63 228.301 62.5406 229.225 61.6212C230.149 60.7018 230.611 59.5575 230.611 58.1871C230.611 56.8173 230.149 55.6724 229.225 54.753C228.301 53.8336 227.155 53.3742 225.785 53.3742C224.415 53.3742 223.27 53.8336 222.351 54.753C221.431 55.6724 220.972 56.8167 220.972 58.1871ZM209.539 62.3633C209.539 62.496 209.583 62.6066 209.671 62.6947C209.759 62.7834 209.87 62.8274 210.003 62.8274H210.573C210.706 62.8274 210.814 62.7834 210.898 62.6947C210.982 62.6066 211.024 62.496 211.024 62.3633V54.0109C211.024 53.8782 210.982 53.7676 210.898 53.6795C210.814 53.5914 210.706 53.5468 210.573 53.5468H210.003C209.87 53.5468 209.76 53.5908 209.671 53.6795C209.583 53.7682 209.539 53.8782 209.539 54.0109V62.3633ZM191.807 54.0109V54.4614C191.807 54.5941 191.851 54.7042 191.94 54.7929C192.028 54.8815 192.139 54.9256 192.272 54.9256H195.083V62.3633C195.083 62.496 195.127 62.6066 195.216 62.6947C195.304 62.7834 195.415 62.8274 195.547 62.8274H196.117C196.241 62.8274 196.347 62.7834 196.436 62.6947C196.524 62.6066 196.569 62.496 196.569 62.3633V54.9256H199.393C199.516 54.9256 199.622 54.8815 199.71 54.7929C199.799 54.7048 199.843 54.5941 199.843 54.4614V54.0109C199.843 53.8782 199.799 53.7676 199.71 53.6795C199.622 53.5914 199.516 53.5468 199.393 53.5468H192.272C192.139 53.5468 192.029 53.5908 191.941 53.6795C191.852 53.7682 191.807 53.8776 191.807 54.0109ZM179.34 55.6682L180.997 59.5391H177.683L179.34 55.6682ZM174.898 62.4031C174.845 62.5269 174.845 62.6281 174.898 62.7084C174.952 62.7875 175.044 62.8274 175.177 62.8274H175.813C175.946 62.8274 176.073 62.7875 176.197 62.7084C176.321 62.6287 176.409 62.5269 176.462 62.4031L177.099 60.9179H181.579L182.216 62.4031C182.269 62.5269 182.357 62.6281 182.481 62.7084C182.605 62.7875 182.733 62.8274 182.865 62.8274H183.502C183.635 62.8274 183.727 62.7875 183.781 62.7084C183.834 62.6287 183.834 62.5269 183.781 62.4031L180.095 53.9175C180.059 53.8116 179.986 53.7229 179.876 53.6527C179.765 53.5819 179.653 53.5468 179.538 53.5468H179.14C178.867 53.5468 178.677 53.6706 178.57 53.9181L174.898 62.4031ZM165.48 60.8917C165.551 60.7768 165.569 60.6638 165.534 60.5531C165.498 60.4424 165.419 60.3656 165.295 60.321L164.698 60.1086C164.645 60.0824 164.583 60.0693 164.512 60.0693C164.326 60.0693 164.163 60.1532 164.022 60.321C163.386 61.1517 162.528 61.5671 161.45 61.5671C160.522 61.5671 159.744 61.2445 159.116 60.5995C158.489 59.9544 158.176 59.1499 158.176 58.1865C158.176 57.2231 158.489 56.4186 159.116 55.7735C159.744 55.1279 160.522 54.8054 161.45 54.8054C162.529 54.8054 163.386 55.2207 164.022 56.0514C164.163 56.2192 164.327 56.3037 164.512 56.3037C164.583 56.3037 164.645 56.2906 164.698 56.2639L165.295 56.0514C165.419 56.0074 165.498 55.93 165.534 55.8193C165.569 55.7092 165.551 55.5962 165.48 55.4813C165.056 54.8274 164.49 54.3126 163.783 53.9366C163.076 53.5611 162.298 53.373 161.45 53.373C160.079 53.373 158.934 53.8324 158.016 54.7518C157.096 55.6706 156.637 56.8155 156.637 58.1859C156.637 59.5563 157.096 60.7006 158.016 61.62C158.935 62.5388 160.08 62.9988 161.45 62.9988C162.298 62.9988 163.075 62.8113 163.783 62.4353C164.49 62.0604 165.056 61.5456 165.48 60.8917ZM142.817 62.9994C143.957 62.9994 144.91 62.628 145.675 61.8854C146.439 61.1428 146.821 60.2192 146.821 59.1142V54.0098C146.821 53.8771 146.777 53.7664 146.689 53.6783C146.6 53.5902 146.49 53.5456 146.356 53.5456H145.787C145.654 53.5456 145.544 53.5896 145.455 53.6783C145.367 53.7664 145.322 53.8771 145.322 54.0098V59.1142C145.322 59.8307 145.084 60.4269 144.606 60.9042C144.129 61.382 143.532 61.6206 142.816 61.6206C142.101 61.6206 141.501 61.382 141.019 60.9042C140.537 60.4269 140.297 59.8307 140.297 59.1142V54.0098C140.297 53.8771 140.255 53.7664 140.171 53.6783C140.087 53.5902 139.979 53.5456 139.846 53.5456H139.276C139.143 53.5456 139.033 53.5896 138.944 53.6783C138.856 53.767 138.812 53.8771 138.812 54.0098V59.1142C138.812 60.2192 139.194 61.1428 139.959 61.8854C140.725 62.628 141.677 62.9994 142.817 62.9994ZM121.957 61.4486V54.9256H124.184C125.112 54.9256 125.89 55.2392 126.518 55.8669C127.145 56.4947 127.459 57.2677 127.459 58.1871C127.459 59.1065 127.145 59.8801 126.518 60.5073C125.89 61.135 125.112 61.4486 124.184 61.4486H121.957ZM120.472 54.0109V62.3633C120.472 62.496 120.516 62.6066 120.605 62.6947C120.693 62.7834 120.803 62.8274 120.936 62.8274H124.184C125.554 62.8274 126.701 62.3811 127.625 61.4885C128.549 60.5959 129.01 59.495 129.01 58.1871C129.01 56.8791 128.549 55.7783 127.625 54.8857C126.701 53.9931 125.555 53.5468 124.184 53.5468H120.936C120.803 53.5468 120.693 53.5908 120.605 53.6795C120.516 53.7682 120.472 53.8776 120.472 54.0109ZM103.802 54.0109V62.3633C103.802 62.496 103.846 62.6066 103.934 62.6947C104.023 62.7834 104.133 62.8274 104.266 62.8274H110.18C110.303 62.8274 110.409 62.7834 110.497 62.6947C110.585 62.6066 110.63 62.496 110.63 62.3633V61.9128C110.63 61.7795 110.585 61.6694 110.497 61.5813C110.409 61.4933 110.303 61.4486 110.18 61.4486H105.287V58.8238H109.397C109.53 58.8238 109.64 58.7792 109.729 58.6911C109.817 58.6025 109.861 58.4924 109.861 58.3597V57.9092C109.861 57.7765 109.817 57.6658 109.729 57.5778C109.64 57.4897 109.53 57.4451 109.397 57.4451H105.287V54.9262H110.113C110.237 54.9262 110.343 54.8821 110.431 54.7934C110.52 54.7054 110.564 54.5947 110.564 54.462V54.0115C110.564 53.8788 110.52 53.7681 110.431 53.6801C110.343 53.592 110.237 53.5474 110.113 53.5474H104.266C104.133 53.5474 104.023 53.5914 103.934 53.6801C103.846 53.7676 103.802 53.8776 103.802 54.0109Z" fill="white"/>
<path d="M94.3354 25.0837C94.8002 25.1236 95.1435 25.5306 95.1043 25.9953C95.0668 26.4571 94.6586 26.8028 94.1932 26.7642C93.7309 26.7237 93.3851 26.3155 93.4262 25.8531C93.4649 25.3872 93.8725 25.045 94.3354 25.0837ZM91.9314 41.8579C95.4381 35.899 98.4896 29.7068 101.566 25.1105L94.2509 23.4574C91.5791 22.8522 90.8031 23.9031 89.3429 26.2232L85.5838 31.8466C85.857 33.1819 86.001 34.5625 86.001 35.9781C86.001 44.1787 81.1857 51.2558 74.2306 54.5376C71.0173 56.2751 67.3172 57.0725 63.4879 56.6381C63.4879 56.6381 80.3509 60.1603 91.9314 41.8579Z" fill="#6CB640"/>
<path fill-rule="evenodd" clip-rule="evenodd" d="M68.0801 15.8335C78.6335 17.3396 86.045 27.6824 84.6323 38.9303C83.222 50.1597 73.5499 58.049 63.0184 56.5792C69.7325 53.9098 74.8822 47.4837 75.8992 39.3861C77.2291 28.7957 71.0375 18.9772 61.7093 16.0524C63.7539 15.6133 65.898 15.5222 68.0801 15.8335Z" fill="#6CB640"/>
<path fill-rule="evenodd" clip-rule="evenodd" d="M68.08 15.8335C77.6034 17.1932 84.5668 25.746 84.7977 35.6687C82.7317 42.5482 77.6064 48.1037 71.003 50.7559C73.5772 47.6795 75.3475 43.7788 75.8991 39.3849C77.2297 28.7945 71.0393 18.9766 61.7104 16.0524C63.7539 15.6127 65.8973 15.5216 68.08 15.8335Z" fill="white"/>
</svg>
