<svg width="66" height="66" viewBox="0 0 66 66" fill="none" xmlns="http://www.w3.org/2000/svg">
<path fill-rule="evenodd" clip-rule="evenodd" d="M49.3228 39.6276C49.2851 39.6276 49.2491 39.6262 49.2117 39.6202C48.82 39.5588 48.5506 39.1923 48.6119 38.8004C48.7364 38.0015 48.7974 37.1832 48.7974 36.3694C48.7977 27.6689 41.7184 20.5899 33.0178 20.5899C24.3159 20.5899 17.2369 27.6689 17.2369 36.3694C17.2374 37.1832 17.2998 38 17.4238 38.8004C17.4837 39.1923 17.2143 39.5589 16.8239 39.6202C16.4295 39.6785 16.064 39.4122 16.0042 39.0203C15.8701 38.1481 15.8008 37.2565 15.8008 36.3694C15.8008 26.876 23.5244 19.1538 33.0178 19.1538C42.5115 19.1538 50.2335 26.876 50.2335 36.3694C50.2336 37.2565 50.1661 38.1481 50.0315 39.0203C49.9765 39.3748 49.671 39.6276 49.3228 39.6276Z" fill="#2E3F99"/>
<path fill-rule="evenodd" clip-rule="evenodd" d="M61.9921 42.2441H56.5542C56.1576 42.2441 55.8358 41.9225 55.8358 41.526C55.8358 41.1281 56.1575 40.8079 56.554 40.8079H61.9921C63.3594 40.8079 64.4706 39.695 64.4706 38.3291L64.4708 34.4112C64.4708 33.0438 63.3591 31.9324 61.9917 31.9324L57.0152 31.9323C56.6767 31.9323 56.3834 31.696 56.3131 31.3639C55.7093 28.5395 54.6032 25.8722 53.0265 23.4398C52.8428 23.1555 52.8828 22.78 53.1222 22.5406L56.6443 19.0191C57.1095 18.5539 57.3647 17.9316 57.3647 17.2674C57.3653 16.6031 57.1089 15.9808 56.6437 15.5141L53.8735 12.7435C53.407 12.2783 52.784 12.0225 52.1198 12.0225C51.456 12.0225 50.8333 12.2783 50.3681 12.7435L46.8467 16.265C46.6078 16.5044 46.2317 16.5448 45.9476 16.3608C43.5152 14.7855 40.8492 13.68 38.0233 13.0757C37.6914 13.0054 37.4549 12.7121 37.4549 12.374L37.4551 7.39541C37.4551 6.02809 36.3434 4.91667 34.9761 4.91667H31.0585C29.6926 4.91667 28.5793 6.02814 28.5793 7.39545L28.5798 12.374C28.5798 12.7121 28.3428 13.0054 28.0123 13.0757C25.1871 13.68 22.5206 14.7855 20.0867 16.3608C19.8029 16.5448 19.4285 16.5059 19.189 16.2666L15.6682 12.7435C15.2009 12.2783 14.5785 12.0225 13.9142 12.0225C13.2501 12.0225 12.6277 12.2783 12.1624 12.7435L9.39202 15.5141C8.42601 16.4805 8.42553 18.0528 9.39194 19.0191L12.9134 22.5406C13.1531 22.78 13.1917 23.1555 13.0078 23.4398C11.4324 25.8722 10.3269 28.538 9.72259 31.3639C9.65255 31.696 9.35902 31.9324 9.02089 31.9324L4.04282 31.9323C2.67705 31.9323 1.56497 33.0439 1.56497 34.4112L1.56549 38.3291C1.56549 39.6949 2.67653 40.8079 4.0423 40.8079H9.48226C9.87875 40.8079 10.1999 41.1281 10.1999 41.526C10.1999 41.9224 9.87814 42.2441 9.48174 42.2441H4.04282C1.88532 42.2441 0.128906 40.4879 0.128906 38.3291L0.128949 34.4112C0.128949 32.2525 1.88523 30.4963 4.0423 30.4963L8.44689 30.4962C9.06618 27.8977 10.0876 25.4309 11.4923 23.151L8.37616 20.0349C6.85076 18.509 6.85033 16.0257 8.37616 14.4998L11.147 11.7278C11.8848 10.9917 12.8671 10.5863 13.9142 10.5863C14.9633 10.5863 15.9459 10.9917 16.6833 11.7293L19.7981 14.8438C22.0796 13.4406 24.5446 12.4174 27.1431 11.7996L27.1433 7.39541C27.1433 5.23675 28.8995 3.48051 31.0581 3.48051L34.9764 3.48047C37.1347 3.48047 38.8909 5.23679 38.8909 7.39545L38.891 11.7996C41.4896 12.4174 43.9564 13.4407 46.2362 14.8439L49.3524 11.7278C50.0889 10.9917 51.0727 10.5863 52.1198 10.5863C53.1687 10.5863 54.1515 10.9917 54.8874 11.7293L57.6594 14.4983C58.3959 15.2359 58.8008 16.2187 58.8008 17.2674C58.8012 18.3145 58.3954 19.2989 57.658 20.0349L54.544 23.151C55.9483 25.4324 56.9698 27.8978 57.5891 30.4963L61.9921 30.4962C64.151 30.4962 65.9067 32.2525 65.9067 34.4112V38.3291C65.9067 40.4879 64.1504 42.2441 61.9921 42.2441Z" fill="#2E3F99"/>
<path fill-rule="evenodd" clip-rule="evenodd" d="M22.4809 61.0827H43.5544V54.279C43.5544 50.5271 40.5024 47.4753 36.7505 47.4753H29.2855C25.5339 47.4753 22.4804 50.5271 22.4804 54.2791L22.4809 61.0827ZM44.2727 62.5189H21.7627C21.3661 62.5189 21.0442 62.1972 21.0442 61.8008L21.0444 54.279C21.0444 49.7357 24.7408 46.0392 29.2855 46.0392H36.7505C41.2938 46.0392 44.9902 49.7358 44.9902 54.2791L44.9903 61.8008C44.9903 62.1972 44.6686 62.5189 44.2727 62.5189Z" fill="#2E3F99"/>
<path fill-rule="evenodd" clip-rule="evenodd" d="M33.0182 32.1897C30.1263 32.1897 27.7745 34.5414 27.7745 37.4316C27.7749 40.3218 30.1262 42.6734 33.0179 42.6734C35.9083 42.6734 38.2598 40.3218 38.2598 37.4316C38.2604 34.5413 35.9081 32.1897 33.0182 32.1897ZM33.0182 44.1096C29.3353 44.1096 26.3384 41.1146 26.3384 37.4316C26.3389 33.7485 29.3349 30.7535 33.0179 30.7535C36.6999 30.7535 39.6959 33.7485 39.6959 37.4316C39.6963 41.1146 36.6996 44.1096 33.0182 44.1096Z" fill="#2E3F99"/>
<path fill-rule="evenodd" clip-rule="evenodd" d="M21.7627 62.5192H5.18278C4.78629 62.5192 4.46436 62.1976 4.46436 61.8011L4.46453 55.9085C4.46453 52.2628 7.4294 49.2978 11.075 49.2978H16.9231C19.2046 49.2978 21.2971 50.4572 22.5208 52.4019C22.7321 52.737 22.6314 53.1798 22.2964 53.3923C21.9599 53.6032 21.517 53.503 21.3061 53.1664C20.3456 51.6435 18.7075 50.7339 16.9229 50.7339H11.0752C8.2228 50.7339 5.90051 53.0557 5.90051 55.9085L5.90103 61.0831H21.7627C22.1591 61.0831 22.4804 61.4047 22.4804 61.8011C22.481 62.1976 22.1588 62.5192 21.7627 62.5192Z" fill="#2E3F99"/>
<path fill-rule="evenodd" clip-rule="evenodd" d="M14 38.7583C11.8202 38.7583 10.0472 40.5311 10.0472 42.7092C10.0477 44.8888 11.8198 46.6616 13.9996 46.6616C16.1777 46.6616 17.9505 44.8888 17.9505 42.7092C17.951 40.5311 16.1777 38.7584 14 38.7583ZM14 48.0977C11.0286 48.0977 8.61108 45.6802 8.61108 42.7092C8.61108 39.7397 11.0286 37.3222 13.9996 37.3222C16.9708 37.3222 19.3866 39.7397 19.3866 42.7092C19.3868 45.6802 16.9706 48.0977 14 48.0977Z" fill="#2E3F99"/>
<path fill-rule="evenodd" clip-rule="evenodd" d="M60.8526 62.5192H44.2728C43.8762 62.5192 43.5542 62.1976 43.5542 61.8011C43.5544 61.4047 43.8758 61.0831 44.2722 61.0831H60.1357V55.9085C60.1357 53.0557 57.8138 50.7339 54.9594 50.7339H49.1122C47.327 50.7339 45.6889 51.6435 44.73 53.1664C44.5178 53.503 44.0748 53.6032 43.7396 53.3923C43.4036 53.1798 43.3029 52.737 43.5138 52.4019C44.7392 50.4572 46.8319 49.2978 49.1117 49.2978H54.9596C58.6056 49.2978 61.5701 52.2628 61.5701 55.9085L61.5703 61.8011C61.5703 62.1976 61.25 62.5192 60.8526 62.5192Z" fill="#2E3F99"/>
<path fill-rule="evenodd" clip-rule="evenodd" d="M52.0362 38.7583C49.8564 38.7583 48.0837 40.5311 48.0837 42.7092C48.084 44.8888 49.8564 46.6616 52.036 46.6616C54.2146 46.6616 55.9868 44.8888 55.9868 42.7092C55.9872 40.5311 54.2141 38.7584 52.0362 38.7583ZM52.0362 48.0977C49.0654 48.0977 46.6475 45.6802 46.6475 42.7092C46.6481 39.7397 49.0649 37.3222 52.036 37.3222C55.0057 37.3222 57.423 39.7397 57.423 42.7092C57.423 45.6802 55.0055 48.0977 52.0362 48.0977Z" fill="#2E3F99"/>
<path fill-rule="evenodd" clip-rule="evenodd" d="M13.9997 46.6619C16.1779 46.6619 17.9506 44.8891 17.9506 42.7095C17.9512 40.5314 16.1779 38.7587 14.0001 38.7586C12.1768 38.7586 10.6381 39.999 10.1836 41.6795C10.1793 41.6991 10.1743 41.7185 10.1684 41.7375C10.0894 42.0486 10.0474 42.3743 10.0474 42.7095C10.0479 44.8891 11.82 46.6619 13.9997 46.6619Z" fill="#DDDDDD"/>
<path fill-rule="evenodd" clip-rule="evenodd" d="M27.7744 37.4315C27.7748 40.3218 30.1261 42.6734 33.0178 42.6734C35.9081 42.6734 38.2597 40.3218 38.2597 37.4315C38.2603 34.5413 35.908 32.1897 33.0181 32.1897C30.1261 32.1897 27.7744 34.5414 27.7744 37.4315Z" fill="#DDDDDD"/>
<path fill-rule="evenodd" clip-rule="evenodd" d="M36.7503 47.4753H29.2854C26.012 47.4753 23.2701 49.7986 22.6242 52.8831C22.6201 52.9121 22.6143 52.9409 22.6068 52.9692C22.5238 53.3931 22.4802 53.8311 22.4802 54.279L22.4808 61.0827H43.5542V54.279C43.5542 53.8299 43.5105 53.3909 43.4271 52.9659C43.4201 52.9392 43.4146 52.9123 43.4107 52.885C42.7658 49.7996 40.0246 47.4753 36.7503 47.4753Z" fill="#F2F4FF"/>
<path fill-rule="evenodd" clip-rule="evenodd" d="M21.1534 52.9377C20.1776 51.5529 18.6161 50.7339 16.9228 50.7339H11.0751C8.22268 50.7339 5.90039 53.0557 5.90039 55.9085L5.90091 61.0831H21.0441L21.0443 54.2794C21.0443 53.8226 21.0816 53.3745 21.1534 52.9377Z" fill="#F2F4FF"/>
<path fill-rule="evenodd" clip-rule="evenodd" d="M44.9901 54.2792L44.9902 61.0829H60.1355V55.9083C60.1355 53.0556 57.8136 50.7337 54.9592 50.7337H49.1121C47.4175 50.7337 45.8555 51.5532 44.8811 52.9389C44.9528 53.3752 44.9901 53.823 44.9901 54.2792Z" fill="#F2F4FF"/>
<path fill-rule="evenodd" clip-rule="evenodd" d="M48.084 42.7095C48.0843 44.8891 49.8567 46.6618 52.0363 46.6618C54.2149 46.6618 55.9872 44.8891 55.9872 42.7095C55.9875 40.5313 54.2144 38.7586 52.0366 38.7586C49.8568 38.7586 48.084 40.5313 48.084 42.7095Z" fill="#DDDDDD"/>
<path fill-rule="evenodd" clip-rule="evenodd" d="M52.0363 37.3224C54.3371 37.3223 56.3063 38.7734 57.0767 40.8079H61.9923C63.3596 40.8079 64.4708 39.695 64.4708 38.3291L64.471 34.4112C64.471 33.0438 63.3593 31.9324 61.992 31.9324L57.0154 31.9323C56.6769 31.9323 56.3836 31.696 56.3134 31.3639C55.7095 28.5395 54.6034 25.8722 53.0267 23.4398C52.8431 23.1555 52.883 22.78 53.1225 22.5406L56.6446 19.0191C57.1098 18.5539 57.3649 17.9316 57.3649 17.2674C57.3655 16.6031 57.1092 15.9808 56.644 15.5141L53.8737 12.7435C53.4072 12.2783 52.7842 12.0225 52.12 12.0225C51.4562 12.0225 50.8336 12.2783 50.3683 12.7435L46.8469 16.265C46.608 16.5044 46.2319 16.5448 45.9478 16.3608C43.5154 14.7855 40.8494 13.68 38.0235 13.0757C37.6916 13.0054 37.4551 12.7121 37.4551 12.374L37.4553 7.39541C37.4553 6.02809 36.3436 4.91666 34.9763 4.91666H31.0587C29.6928 4.91666 28.5795 6.02813 28.5795 7.39545L28.58 12.374C28.58 12.7121 28.3431 13.0054 28.0125 13.0757C25.1873 13.68 22.5208 14.7855 20.0869 16.3608C19.8031 16.5448 19.4287 16.5059 19.1893 16.2666L15.6684 12.7435C15.2011 12.2783 14.5788 12.0225 13.9144 12.0225C13.2503 12.0225 12.6279 12.2783 12.1627 12.7435L9.39223 15.5141C8.42622 16.4805 8.42574 18.0528 9.39215 19.0191L12.9137 22.5406C13.1533 22.78 13.1919 23.1555 13.008 23.4398C11.4326 25.8722 10.3271 28.538 9.7228 31.3639C9.65276 31.696 9.35923 31.9324 9.0211 31.9324L4.04303 31.9323C2.67726 31.9323 1.56519 33.0439 1.56519 34.4112L1.5657 38.3291C1.5657 39.6949 2.67674 40.8079 4.04251 40.8079H8.95802C9.72852 38.7734 11.698 37.3224 13.9998 37.3224C14.649 37.3224 15.2717 37.4378 15.8485 37.6492C15.817 37.2233 15.801 36.7958 15.801 36.3694C15.801 26.876 23.5246 19.1538 33.018 19.1538C42.5117 19.1538 50.2337 26.876 50.2337 36.3694C50.2337 36.7959 50.2181 37.2234 50.187 37.6494C50.764 37.4379 51.3869 37.3224 52.0363 37.3224Z" fill="#F2F4FF"/>
</svg>
