<svg width="20" height="20" viewBox="0 0 20 20" fill="none" xmlns="http://www.w3.org/2000/svg">
<path opacity="0.4" d="M17.9167 6.97508V13.1834C17.9167 13.3084 17.875 13.4334 17.7667 13.5417C16.5583 14.7584 14.4083 16.9251 13.175 18.1667C13.0667 18.2834 12.925 18.3334 12.7833 18.3334H6.14168C3.90001 18.3334 2.08334 16.5167 2.08334 14.2751V6.97508C2.08334 4.73341 3.90001 2.91675 6.14168 2.91675H13.8583C16.1 2.91675 17.9167 4.73341 17.9167 6.97508Z" fill="#2E3F99"/>
<path d="M6.90833 5.24175C6.55833 5.24175 6.28333 4.95842 6.28333 4.61675V2.29175C6.28333 1.95008 6.55833 1.66675 6.90833 1.66675C7.25833 1.66675 7.53333 1.95008 7.53333 2.29175V4.60842C7.53333 4.95842 7.25833 5.24175 6.90833 5.24175Z" fill="#2E3F99"/>
<path d="M13.0917 5.24175C12.7417 5.24175 12.4667 4.95842 12.4667 4.61675V2.29175C12.4667 1.94175 12.75 1.66675 13.0917 1.66675C13.4417 1.66675 13.7167 1.95008 13.7167 2.29175V4.60842C13.7167 4.95842 13.4417 5.24175 13.0917 5.24175Z" fill="#2E3F99"/>
<path d="M12.3167 10.5916H6.13333C5.78333 10.5916 5.50833 10.3082 5.50833 9.96655C5.50833 9.62489 5.79166 9.34155 6.13333 9.34155H12.3167C12.6667 9.34155 12.9417 9.62489 12.9417 9.96655C12.9417 10.3082 12.6667 10.5916 12.3167 10.5916Z" fill="#2E3F99"/>
<path d="M10 13.6833H6.13333C5.78333 13.6833 5.50833 13.4 5.50833 13.0583C5.50833 12.7083 5.79166 12.4333 6.13333 12.4333H10C10.35 12.4333 10.625 12.7167 10.625 13.0583C10.625 13.4 10.35 13.6833 10 13.6833Z" fill="#2E3F99"/>
<path d="M17.9167 13.1832C17.9167 13.3082 17.875 13.4332 17.7667 13.5416C16.5583 14.7582 14.4083 16.9249 13.175 18.1666C13.0667 18.2832 12.925 18.3332 12.7833 18.3332C12.5083 18.3332 12.2417 18.1166 12.2417 17.7999V14.8832C12.2417 13.6666 13.275 12.6582 14.5417 12.6582C15.3333 12.6499 16.4333 12.6499 17.375 12.6499C17.7 12.6499 17.9167 12.9082 17.9167 13.1832Z" fill="#2E3F99"/>
</svg>
