<svg width="20" height="20" viewBox="0 0 20 20" fill="none" xmlns="http://www.w3.org/2000/svg">
<path opacity="0.4" d="M17.0833 8.49175H14.675C12.7 8.49175 11.0917 6.88341 11.0917 4.90841V2.50008C11.0917 2.04175 10.7167 1.66675 10.2583 1.66675H6.72501C4.15834 1.66675 2.08334 3.33342 2.08334 6.30841V13.6917C2.08334 16.6667 4.15834 18.3334 6.72501 18.3334H13.275C15.8417 18.3334 17.9167 16.6667 17.9167 13.6917V9.32508C17.9167 8.86675 17.5417 8.49175 17.0833 8.49175Z" fill="#2E3F99"/>
<path d="M13.1667 1.84158C12.825 1.49991 12.2333 1.73325 12.2333 2.20825V5.11658C12.2333 6.33325 13.2667 7.34158 14.525 7.34158C15.3167 7.34991 16.4167 7.34991 17.3583 7.34991C17.8333 7.34991 18.0833 6.79158 17.75 6.45825C16.55 5.24991 14.4 3.07491 13.1667 1.84158Z" fill="#2E3F99"/>
<path d="M11.25 11.4583H6.25C5.90833 11.4583 5.625 11.1749 5.625 10.8333C5.625 10.4916 5.90833 10.2083 6.25 10.2083H11.25C11.5917 10.2083 11.875 10.4916 11.875 10.8333C11.875 11.1749 11.5917 11.4583 11.25 11.4583Z" fill="#2E3F99"/>
<path d="M9.58333 14.7917H6.25C5.90833 14.7917 5.625 14.5084 5.625 14.1667C5.625 13.8251 5.90833 13.5417 6.25 13.5417H9.58333C9.925 13.5417 10.2083 13.8251 10.2083 14.1667C10.2083 14.5084 9.925 14.7917 9.58333 14.7917Z" fill="#2E3F99"/>
</svg>
