<svg width="22" height="22" viewBox="0 0 22 22" fill="none" xmlns="http://www.w3.org/2000/svg">
<g opacity="0.3">
<path d="M10.4884 20.9767C4.70698 20.9767 0 16.2698 0 10.4884C0 4.70698 4.70698 0 10.4884 0C16.2698 0 20.9767 4.70698 20.9767 10.4884C20.9767 16.2698 16.2698 20.9767 10.4884 20.9767ZM10.4884 1.53488C5.54605 1.53488 1.53488 5.55628 1.53488 10.4884C1.53488 15.4205 5.54605 19.4419 10.4884 19.4419C15.4307 19.4419 19.4419 15.4205 19.4419 10.4884C19.4419 5.55628 15.4307 1.53488 10.4884 1.53488Z" fill="white"/>
<path d="M21.2325 22C21.0381 22 20.8437 21.9284 20.6902 21.7749L18.6437 19.7284C18.347 19.4316 18.347 18.9405 18.6437 18.6437C18.9404 18.347 19.4316 18.347 19.7284 18.6437L21.7749 20.6902C22.0716 20.987 22.0716 21.4782 21.7749 21.7749C21.6214 21.9284 21.427 22 21.2325 22Z" fill="white"/>
</g>
</svg>
