<svg width="16" height="16" viewBox="0 0 16 16" fill="none" xmlns="http://www.w3.org/2000/svg">
<path opacity="0.4" d="M3.80962 0H11.4289C13.7146 0 15.2385 1.2 15.2385 4V6.51201C15.2385 7.09601 14.667 7.46401 14.1565 7.23201C13.3184 6.84801 12.366 6.704 11.3679 6.872C9.37167 7.216 7.74115 8.872 7.33733 10.952C7.22304 11.56 7.2078 12.152 7.28399 12.72C7.34494 13.192 6.97923 13.608 6.52969 13.608H3.80962C1.52385 13.608 0 12.408 0 9.60801V4.00801C0 1.20001 1.52385 0 3.80962 0Z" fill="#73BF44"/>
<path d="M7.61848 7.09605C6.97846 7.09605 6.33083 6.88804 5.83558 6.46404L3.45075 4.46404C3.20694 4.25604 3.16122 3.88005 3.35933 3.62405C3.55743 3.36805 3.91552 3.32005 4.15934 3.52805L6.54416 5.52805C7.12322 6.01605 8.1061 6.01605 8.68517 5.52805L11.07 3.52805C11.3138 3.32005 11.6795 3.36005 11.87 3.62405C12.0681 3.88005 12.03 4.26404 11.7786 4.46404L9.39375 6.46404C8.90612 6.88804 8.25849 7.09605 7.61848 7.09605Z" fill="#73BF44"/>
<path d="M12.1905 8.00012C10.0876 8.00012 8.38086 9.78412 8.38086 12.0001C8.38086 14.2081 10.0876 16.0001 12.1905 16.0001C14.301 16.0001 16.0001 14.2081 16.0001 12.0001C16.0001 9.78412 14.301 8.00012 12.1905 8.00012ZM13.7524 11.6401L13.4705 11.9281L11.8171 13.6721C11.741 13.7441 11.5962 13.8241 11.4895 13.8401L10.7428 13.9521C10.4762 13.9921 10.2857 13.7921 10.3238 13.5121L10.4304 12.7281C10.4457 12.6161 10.5142 12.4641 10.5904 12.3841L12.2514 10.6481L12.5257 10.3521C12.7086 10.1601 12.9143 10.0321 13.1277 10.0321C13.3105 10.0321 13.5162 10.1201 13.7448 10.3521C14.2477 10.8801 14.0877 11.2881 13.7524 11.6401Z" fill="#73BF44"/>
</svg>
