<svg width="20" height="20" viewBox="0 0 20 20" fill="none" xmlns="http://www.w3.org/2000/svg">
<path opacity="0.4" d="M10.8333 2.70825H5.83333C2.98333 2.70825 1.875 3.81659 1.875 6.66659V13.3333C1.875 15.2499 2.91667 17.2916 5.83333 17.2916H10.8333C13.6833 17.2916 14.7917 16.1833 14.7917 13.3333V6.66659C14.7917 3.81659 13.6833 2.70825 10.8333 2.70825Z" fill="#2E3F99"/>
<path d="M9.58333 9.48343C10.4486 9.48343 11.15 8.78201 11.15 7.91676C11.15 7.05152 10.4486 6.3501 9.58333 6.3501C8.71808 6.3501 8.01666 7.05152 8.01666 7.91676C8.01666 8.78201 8.71808 9.48343 9.58333 9.48343Z" fill="#2E3F99"/>
<path d="M18.0417 5.14168C17.7 4.96668 16.9833 4.76668 16.0083 5.45001L14.775 6.31668C14.7833 6.43334 14.7917 6.54168 14.7917 6.66668V13.3333C14.7917 13.4583 14.775 13.5667 14.775 13.6833L16.0083 14.55C16.525 14.9167 16.975 15.0333 17.3333 15.0333C17.6417 15.0333 17.8833 14.95 18.0417 14.8667C18.3833 14.6917 18.9583 14.2167 18.9583 13.025V6.98334C18.9583 5.79168 18.3833 5.31668 18.0417 5.14168Z" fill="#2E3F99"/>
</svg>
